# xmcd
#
# Track frame offsets:
#	150
#	9681
#	23625
#	46999
#	69611
#	88491
#	104942
#	122390
#	143687
#	158474
#
# Disc length: 2286 seconds
#
# Revision: 0
# Processed by: cddbd v1.5.1PL0 Copyright (c) Steve Scherf et al.
# Submitted via: dBpowerAMP V4.0
#
DISCID=8108ec0a
DTITLE=Angel Rissoff - Where Have You Been
DYEAR=2005
DGENRE=Blues
TTITLE0=Where You At?
TTITLE1=I Want A Love I Can See
TTITLE2=Where Have You Been?
TTITLE3=Why Me?
TTITLE4=It's Better To Have And Don't Need
TTITLE5=Your Promise To Be Mine
TTITLE6=Break Out the Tears
TTITLE7=Back In Love Again
TTITLE8=I Wanna Be Your Everything
TTITLE9=Oh Rockin' Daddy
EXTD=Rissoff Records 6841
EXTT0=
EXTT1=
EXTT2=
EXTT3=
EXTT4=
EXTT5=
EXTT6=
EXTT7=
EXTT8=
EXTT9=
PLAYORDER=
